<svg width="17" height="14" viewBox="0 0 17 14" fill="none" xmlns="http://www.w3.org/2000/svg">
<path d="M16.2656 4.35513H11.7761C11.3749 4.35513 11.0502 3.96926 11.0502 3.49368V3.47539C11.0502 2.99981 11.3749 2.61395 11.7761 2.61395H16.2656C16.6702 2.61395 17 3.00591 17 3.48498C17 3.96404 16.6702 4.356 16.2656 4.356V4.35513ZM16.2656 7.83923H11.7761C11.3749 7.83923 11.0502 7.45337 11.0502 6.97779V6.95863C11.0502 6.48305 11.3749 6.09718 11.7761 6.09718H16.2656C16.6702 6.09718 17 6.48914 17 6.96821C17 7.44727 16.6702 7.83923 16.2656 7.83923ZM16.2843 11.3233H13.4565C13.0655 11.3233 12.7502 10.9375 12.7502 10.4619V10.4427C12.7502 9.96715 13.0663 9.58129 13.4565 9.58129H16.2843C16.6779 9.58129 17 9.97325 17 10.4523C17 10.9314 16.6779 11.3233 16.2843 11.3233ZM5.9504 6.96821C5.0487 6.96821 4.18393 6.60113 3.54633 5.94774C2.90873 5.29434 2.55053 4.40815 2.55053 3.4841C2.55053 2.56006 2.90873 1.67387 3.54633 1.02047C4.18393 0.367074 5.0487 0 5.9504 0C6.85211 0 7.71688 0.367074 8.35448 1.02047C8.99208 1.67387 9.35028 2.56006 9.35028 3.4841C9.35028 4.40815 8.99208 5.29434 8.35448 5.94774C7.71688 6.60113 6.85211 6.96821 5.9504 6.96821ZM0.825093 14C0.329561 14 -0.0656747 13.5488 0.00912255 13.048C0.230184 11.5962 0.950528 10.2732 2.04007 9.31799C3.12962 8.36278 4.51655 7.83829 5.9504 7.83923C7.38412 7.8385 8.77084 8.36308 9.86021 9.31827C10.9496 10.2735 11.6698 11.5963 11.8908 13.048C11.9673 13.5488 11.5712 14 11.0766 14H0.825093Z" fill="black"/>
</svg>
