<svg width="21" height="17" viewBox="0 0 21 17" fill="none" xmlns="http://www.w3.org/2000/svg">
<path d="M20.0928 5.28837H14.5469C14.0514 5.28837 13.6503 4.81982 13.6503 4.24233V4.22012C13.6503 3.64263 14.0514 3.17408 14.5469 3.17408H20.0928C20.5926 3.17408 21 3.65003 21 4.23176C21 4.81348 20.5926 5.28943 20.0928 5.28943V5.28837ZM20.0928 9.51907H14.5469C14.0514 9.51907 13.6503 9.05052 13.6503 8.47303V8.44976C13.6503 7.87227 14.0514 7.40372 14.5469 7.40372H20.0928C20.5926 7.40372 21 7.87967 21 8.4614C21 9.04312 20.5926 9.51907 20.0928 9.51907ZM20.1159 13.7498H16.6227C16.1397 13.7498 15.7502 13.2812 15.7502 12.7037V12.6805C15.7502 12.103 16.1408 11.6344 16.6227 11.6344H20.1159C20.6021 11.6344 21 12.1104 21 12.6921C21 13.2738 20.6021 13.7498 20.1159 13.7498ZM7.3505 8.4614C6.23663 8.4614 5.16838 8.01566 4.38076 7.22225C3.59314 6.42884 3.15065 5.35275 3.15065 4.2307C3.15065 3.10865 3.59314 2.03255 4.38076 1.23914C5.16838 0.445733 6.23663 0 7.3505 0C8.46437 0 9.53262 0.445733 10.3202 1.23914C11.1079 2.03255 11.5503 3.10865 11.5503 4.2307C11.5503 5.35275 11.1079 6.42884 10.3202 7.22225C9.53262 8.01566 8.46437 8.4614 7.3505 8.4614ZM1.01923 17C0.407105 17 -0.0811276 16.4521 0.011269 15.844C0.284345 14.081 1.17418 12.4746 2.52009 11.3147C3.866 10.1548 5.57927 9.51793 7.3505 9.51907C9.12155 9.51818 10.8346 10.1552 12.1803 11.315C13.5259 12.4749 14.4156 14.0812 14.6887 15.844C14.7832 16.4521 14.2939 17 13.6828 17H1.01923Z" fill="black"/>
</svg>
