<svg width="23" height="24" viewBox="0 0 23 24" fill="none" xmlns="http://www.w3.org/2000/svg">
<path d="M1.27778 13.3333H8.94444C9.64722 13.3333 10.2222 12.7333 10.2222 12V1.33333C10.2222 0.6 9.64722 0 8.94444 0H1.27778C0.575 0 0 0.6 0 1.33333V12C0 12.7333 0.575 13.3333 1.27778 13.3333ZM1.27778 24H8.94444C9.64722 24 10.2222 23.4 10.2222 22.6667V17.3333C10.2222 16.6 9.64722 16 8.94444 16H1.27778C0.575 16 0 16.6 0 17.3333V22.6667C0 23.4 0.575 24 1.27778 24ZM14.0556 24H21.7222C22.425 24 23 23.4 23 22.6667V12C23 11.2667 22.425 10.6667 21.7222 10.6667H14.0556C13.3528 10.6667 12.7778 11.2667 12.7778 12V22.6667C12.7778 23.4 13.3528 24 14.0556 24ZM12.7778 1.33333V6.66667C12.7778 7.4 13.3528 8 14.0556 8H21.7222C22.425 8 23 7.4 23 6.66667V1.33333C23 0.6 22.425 0 21.7222 0H14.0556C13.3528 0 12.7778 0.6 12.7778 1.33333Z" fill="#F5F5F5"/>
</svg>
