<svg width="18" height="18" viewBox="0 0 18 18" fill="none" xmlns="http://www.w3.org/2000/svg">
<path d="M16 0C16.5304 0 17.0391 0.210714 17.4142 0.585786C17.7893 0.960859 18 1.46957 18 2V16C18 16.5304 17.7893 17.0391 17.4142 17.4142C17.0391 17.7893 16.5304 18 16 18H2C1.46957 18 0.960859 17.7893 0.585786 17.4142C0.210714 17.0391 0 16.5304 0 16V2C0 1.46957 0.210714 0.960859 0.585786 0.585786C0.960859 0.210714 1.46957 0 2 0H16ZM13.7 6.35C13.92 6.14 13.92 5.79 13.7 5.58L12.42 4.3C12.3705 4.24765 12.3108 4.20595 12.2446 4.17745C12.1784 4.14895 12.1071 4.13425 12.035 4.13425C11.9629 4.13425 11.8916 4.14895 11.8254 4.17745C11.7592 4.20595 11.6995 4.24765 11.65 4.3L10.65 5.3L12.7 7.35L13.7 6.35ZM4 11.94V14H6.06L12.12 7.94L10.06 5.88L4 11.94Z" fill="#4368FA"/>
</svg>
