<svg width="29" height="29" viewBox="0 0 29 29" fill="none" xmlns="http://www.w3.org/2000/svg">
<path d="M17.1409 2.10458C16.9962 1.48045 16.6358 0.927455 16.1231 0.543192C15.6105 0.15893 14.9786 -0.0319056 14.3389 0.00436093C13.6993 0.0406275 13.093 0.301665 12.6271 0.741411C12.1611 1.18116 11.8655 1.77135 11.7923 2.40783C11.7192 3.04432 11.8732 3.68619 12.2272 4.22019C12.5812 4.75418 13.1124 5.14598 13.7272 5.32643C14.3419 5.50689 15.0006 5.46441 15.5871 5.20649C16.1736 4.94857 16.6501 4.49179 16.9326 3.91675C18.6522 4.30833 20.2508 5.11236 21.5904 6.25948C22.93 7.40659 23.9705 8.86237 24.6221 10.5012L26.2801 9.84924C25.5126 7.90537 24.2767 6.18124 22.6823 4.83011C21.0879 3.47899 19.1843 2.54274 17.1409 2.10458ZM14.5048 3.63465C14.3834 3.63855 14.2625 3.61801 14.1492 3.57425C14.036 3.53049 13.9326 3.46441 13.8454 3.37993C13.7582 3.29545 13.6888 3.1943 13.6414 3.08248C13.5941 2.97067 13.5696 2.85047 13.5696 2.72903C13.5696 2.6076 13.5941 2.4874 13.6414 2.37558C13.6888 2.26377 13.7582 2.16261 13.8454 2.07813C13.9326 1.99365 14.036 1.92757 14.1492 1.88382C14.2625 1.84006 14.3834 1.81952 14.5048 1.82342C14.7451 1.82342 14.9756 1.91888 15.1455 2.0888C15.3154 2.25873 15.4109 2.48919 15.4109 2.7295C15.4109 2.96981 15.3154 3.20027 15.1455 3.3702C14.9756 3.54012 14.7451 3.63465 14.5048 3.63465ZM10.519 4.38753L9.84924 2.73043C7.90537 3.49794 6.18124 4.73384 4.83011 6.32827C3.47899 7.92269 2.54274 9.82625 2.10458 11.8697C1.48045 12.0143 0.927455 12.3748 0.543192 12.8874C0.15893 13.4001 -0.0319056 14.032 0.00436093 14.6716C0.0406275 15.3113 0.301665 15.9176 0.741411 16.3835C1.18116 16.8494 1.77135 17.1451 2.40783 17.2182C3.04432 17.2914 3.68619 17.1374 4.22019 16.7834C4.75418 16.4294 5.14598 15.8982 5.32644 15.2834C5.50689 14.6687 5.46441 14.01 5.20649 13.4235C4.94857 12.837 4.49179 12.3605 3.91675 12.078C4.30995 10.3563 5.11659 8.75635 6.26694 7.4164C7.41728 6.07645 8.8767 5.03686 10.519 4.38753ZM2.72857 15.4118C2.60958 15.4118 2.49175 15.3884 2.38182 15.3429C2.27189 15.2973 2.17201 15.2306 2.08787 15.1464C2.00373 15.0623 1.93699 14.9624 1.89146 14.8525C1.84592 14.7426 1.82248 14.6247 1.82248 14.5058C1.82248 14.3868 1.84592 14.2689 1.89146 14.159C1.93699 14.0491 2.00373 13.9492 2.08787 13.8651C2.17201 13.7809 2.27189 13.7142 2.38182 13.6686C2.49175 13.6231 2.60958 13.5997 2.72857 13.5997C2.96887 13.5997 3.19934 13.6951 3.36926 13.8651C3.53918 14.035 3.63465 14.2654 3.63465 14.5058C3.63465 14.7461 3.53918 14.9765 3.36926 15.1464C3.19934 15.3164 2.96887 15.4118 2.72857 15.4118ZM14.5048 23.5638C13.9995 23.5654 13.5046 23.7079 13.0758 23.9752C12.6469 24.2425 12.3011 24.624 12.0771 25.077C10.3572 24.6855 8.75835 23.8814 7.41854 22.7341C6.07873 21.5868 5.03816 20.1307 4.3866 18.4916L2.7295 19.1613C3.49951 21.1085 4.73955 22.8348 6.33898 24.1861C7.9384 25.5375 9.84748 26.4719 11.8959 26.906C12.0135 27.4047 12.2697 27.86 12.635 28.2193C13.0002 28.5787 13.4596 28.8275 13.9601 28.9371C14.4606 29.0467 14.9819 29.0126 15.4639 28.8387C15.9459 28.6648 16.3689 28.3583 16.6842 27.9544C16.9995 27.5505 17.1942 27.0657 17.2458 26.5559C17.2975 26.0461 17.2041 25.5322 16.9763 25.0732C16.7485 24.6142 16.3956 24.229 15.9583 23.962C15.521 23.6949 15.0172 23.5569 14.5048 23.5638ZM14.5048 27.1872C14.2645 27.1872 14.034 27.0917 13.8641 26.9218C13.6942 26.7518 13.5987 26.5214 13.5987 26.2811C13.5987 26.0408 13.6942 25.8103 13.8641 25.6404C14.034 25.4705 14.2645 25.375 14.5048 25.375C14.7451 25.375 14.9756 25.4705 15.1455 25.6404C15.3154 25.8103 15.4109 26.0408 15.4109 26.2811C15.4109 26.5214 15.3154 26.7518 15.1455 26.9218C14.9756 27.0917 14.7451 27.1872 14.5048 27.1872ZM28.9974 14.5048C28.9991 14.0198 28.871 13.5432 28.6263 13.1244C28.3817 12.7056 28.0295 12.3599 27.6062 12.1232C27.1829 11.8864 26.704 11.7672 26.2191 11.778C25.7342 11.7887 25.261 11.929 24.8486 12.1842C24.4362 12.4395 24.0996 12.8004 23.8737 13.2296C23.6479 13.6588 23.541 14.1406 23.5641 14.6251C23.5872 15.1095 23.7395 15.579 24.0052 15.9847C24.2709 16.3905 24.6403 16.7177 25.0751 16.9326C24.6835 18.6523 23.8793 20.2509 22.732 21.5906C21.5847 22.9302 20.1288 23.9706 18.4897 24.6221L19.1604 26.2801C21.1076 25.5101 22.8338 24.2701 24.1852 22.6707C25.5365 21.0712 26.4709 19.1622 26.9051 17.1138C27.4947 16.9743 28.0209 16.6418 28.4 16.1692C28.7791 15.6965 28.9894 15.1107 28.9974 14.5048ZM26.2792 15.4109C26.0389 15.4109 25.8084 15.3154 25.6385 15.1455C25.4686 14.9756 25.3731 14.7451 25.3731 14.5048C25.3731 14.2645 25.4686 14.034 25.6385 13.8641C25.8084 13.6942 26.0389 13.5987 26.2792 13.5987C26.5195 13.5987 26.75 13.6942 26.9199 13.8641C27.0898 14.034 27.1853 14.2645 27.1853 14.5048C27.1853 14.7451 27.0898 14.9756 26.9199 15.1455C26.75 15.3154 26.5195 15.4109 26.2792 15.4109Z" fill="url(#paint0_linear_2346_84)"/>
<path d="M17.0309 14.3779C17.5463 13.8747 17.8999 13.2293 18.0467 12.5242C18.1936 11.8191 18.1269 11.0862 17.8552 10.4191C17.5836 9.75209 17.1193 9.18114 16.5216 8.7792C15.9239 8.37727 15.22 8.1626 14.4997 8.1626C13.7795 8.1626 13.0756 8.37727 12.4779 8.7792C11.8802 9.18114 11.4159 9.75209 11.1443 10.4191C10.8726 11.0862 10.8059 11.8191 10.9527 12.5242C11.0996 13.2293 11.4532 13.8747 11.9685 14.3779C11.3553 14.7924 10.8529 15.3509 10.5055 16.0045C10.158 16.6581 9.97598 17.3869 9.97534 18.1271V19.9381H19.0326V18.1261C19.031 17.3852 18.8477 16.6559 18.4987 16.0023C18.1497 15.3486 17.6458 14.7915 17.0309 14.3779ZM12.6924 11.786C12.6924 11.548 12.7393 11.3124 12.8303 11.0926C12.9214 10.8727 13.0549 10.673 13.2231 10.5047C13.3914 10.3365 13.5912 10.203 13.811 10.1119C14.0308 10.0209 14.2665 9.97399 14.5044 9.97399C14.7424 9.97399 14.978 10.0209 15.1978 10.1119C15.4177 10.203 15.6174 10.3365 15.7857 10.5047C15.954 10.673 16.0874 10.8727 16.1785 11.0926C16.2696 11.3124 16.3164 11.548 16.3164 11.786C16.3164 12.2666 16.1255 12.7275 15.7857 13.0673C15.4459 13.4071 14.985 13.598 14.5044 13.598C14.0238 13.598 13.563 13.4071 13.2231 13.0673C12.8833 12.7275 12.6924 12.2666 12.6924 11.786ZM11.7864 18.1261C11.7797 17.765 11.8451 17.4062 11.9786 17.0706C12.1122 16.7351 12.3113 16.4295 12.5643 16.1717C12.8173 15.914 13.1192 15.7093 13.4522 15.5695C13.7852 15.4297 14.1428 15.3577 14.504 15.3577C14.8651 15.3577 15.2227 15.4297 15.5557 15.5695C15.8887 15.7093 16.1906 15.914 16.4436 16.1717C16.6966 16.4295 16.8957 16.7351 17.0293 17.0706C17.1628 17.4062 17.2282 17.765 17.2215 18.1261H11.7864Z" fill="url(#paint1_linear_2346_84)"/>
<defs>
<linearGradient id="paint0_linear_2346_84" x1="14.4987" y1="0" x2="14.4987" y2="29" gradientUnits="userSpaceOnUse">
<stop offset="0.62" stop-color="#2E3748"/>
<stop offset="1" stop-color="#6F85AE"/>
</linearGradient>
<linearGradient id="paint1_linear_2346_84" x1="14.5039" y1="8.1626" x2="14.5039" y2="19.9381" gradientUnits="userSpaceOnUse">
<stop offset="0.62" stop-color="#2E3748"/>
<stop offset="1" stop-color="#6F85AE"/>
</linearGradient>
</defs>
</svg>
