<svg width="17" height="15" viewBox="0 0 17 15" fill="none" xmlns="http://www.w3.org/2000/svg">
<path d="M0.85 15C0.609167 15 0.407433 14.92 0.2448 14.76C0.0821667 14.6 0.000566667 14.4022 0 14.1667V5.83333C0 5.59722 0.0816001 5.39944 0.2448 5.24C0.408 5.08055 0.609733 5.00055 0.85 5H3.825C4.06583 5 4.26785 5.08 4.43105 5.24C4.59425 5.4 4.67557 5.59778 4.675 5.83333V14.1667C4.675 14.4028 4.5934 14.6008 4.4302 14.7608C4.267 14.9208 4.06527 15.0006 3.825 15H0.85ZM7.0125 15C6.77167 15 6.56993 14.92 6.4073 14.76C6.24467 14.6 6.16307 14.4022 6.1625 14.1667V0.833333C6.1625 0.597222 6.2441 0.399444 6.4073 0.24C6.5705 0.0805556 6.77223 0.000555555 7.0125 0H9.9875C10.2283 0 10.4303 0.0800001 10.5935 0.24C10.7567 0.4 10.8381 0.597778 10.8375 0.833333V14.1667C10.8375 14.4028 10.7559 14.6008 10.5927 14.7608C10.4295 14.9208 10.2278 15.0006 9.9875 15H7.0125ZM13.175 15C12.9342 15 12.7324 14.92 12.5698 14.76C12.4072 14.6 12.3256 14.4022 12.325 14.1667V7.5C12.325 7.26389 12.4066 7.06611 12.5698 6.90667C12.733 6.74722 12.9347 6.66722 13.175 6.66667H16.15C16.3908 6.66667 16.5928 6.74667 16.756 6.90667C16.9192 7.06667 17.0006 7.26444 17 7.5V14.1667C17 14.4028 16.9184 14.6008 16.7552 14.7608C16.592 14.9208 16.3903 15.0006 16.15 15H13.175Z" fill="black"/>
</svg>
