<svg width="20" height="20" viewBox="0 0 20 20" fill="none" xmlns="http://www.w3.org/2000/svg">
<path d="M9.577 19H8.623C5.0302 19 3.2329 19 2.116 17.9452C1 16.8913 1 15.1939 1 11.8V8.2C1 4.8061 1 3.1087 2.116 2.0548C3.2329 1 5.0302 1 8.623 1H9.577C13.1707 1 14.9671 1 16.084 2.0548C17.2 3.1087 17.2 4.8061 17.2 8.2V8.65M5.5 5.5H12.7M5.5 10H10" stroke="black" stroke-width="1.5" stroke-linecap="round" stroke-linejoin="round"/>
<path d="M15.3998 19.0004V17.843C14.9106 17.8464 14.4279 17.7311 13.993 17.5069C13.5582 17.2828 13.1842 16.9565 12.9032 16.556M15.3998 17.8421C15.889 17.8455 16.3718 17.7302 16.8066 17.506C17.2414 17.2819 17.6154 16.9556 17.8964 16.5551M15.3998 12.0569C16.4411 12.0569 17.3582 12.5681 17.8964 13.3439C18.2243 13.8148 18.4001 14.3757 18.4001 14.9495C18.4001 15.5233 18.2243 16.0833 17.8964 16.5542L18.9998 17.2634M12.9032 13.3457C13.1842 12.9452 13.5582 12.6189 13.993 12.3947C14.4279 12.1706 14.9106 12.0553 15.3998 12.0587V10.9004M18.9998 12.6365L17.8964 13.3457M11.7998 17.2634L12.9032 16.5542C12.5753 16.0833 12.3995 15.5233 12.3995 14.9495C12.3995 14.3757 12.5753 13.8157 12.9032 13.3448M11.7998 12.6374L12.9032 13.3466" stroke="black" stroke-width="1.5" stroke-linecap="round" stroke-linejoin="round"/>
</svg>
