<svg width="25" height="25" viewBox="0 0 25 25" fill="none" xmlns="http://www.w3.org/2000/svg">
<path d="M11.9595 24H10.7405C6.1497 24 3.85315 24 2.426 22.6522C1 21.3055 1 19.1366 1 14.8V10.2C1 5.86335 1 3.69445 2.426 2.3478C3.85315 1 6.1497 1 10.7405 1H11.9595C16.5515 1 18.8469 1 20.274 2.3478C21.7 3.69445 21.7 5.86335 21.7 10.2V10.775M6.75 6.75H15.95M6.75 12.5H12.5" stroke="#2E3748" stroke-width="1.5" stroke-linecap="round" stroke-linejoin="round"/>
<path d="M19.4 23.9999V22.521C18.7749 22.5254 18.1581 22.378 17.6025 22.0916C17.0468 21.8052 16.569 21.3882 16.2099 20.8765M19.4 22.5199C20.0252 22.5242 20.642 22.3769 21.1976 22.0905C21.7532 21.804 22.2311 21.3871 22.5901 20.8754M19.4 15.1277C20.7306 15.1277 21.9024 15.7809 22.5901 16.7722C23.0091 17.3738 23.2338 18.0906 23.2338 18.8238C23.2338 19.5569 23.0091 20.2725 22.5901 20.8742L24 21.7804M16.2099 16.7745C16.569 16.2627 17.0468 15.8458 17.6025 15.5593C18.1581 15.2729 18.7749 15.1256 19.4 15.13V13.6499M24 15.8683L22.5901 16.7745M14.8 21.7804L16.2099 20.8742C15.7909 20.2725 15.5663 19.5569 15.5663 18.8238C15.5663 18.0906 15.7909 17.375 16.2099 16.7733M14.8 15.8694L16.2099 16.7756" stroke="#2E3748" stroke-width="1.5" stroke-linecap="round" stroke-linejoin="round"/>
</svg>
