<svg width="18" height="19" viewBox="0 0 18 19" fill="none" xmlns="http://www.w3.org/2000/svg">
<path d="M18 13.663C17.9999 14.9086 17.5793 16.1168 16.8079 17.0874C16.0365 18.058 14.9605 18.7328 13.7583 19L13.1841 17.2568C13.71 17.1694 14.2101 16.9649 14.6484 16.6581C15.0867 16.3513 15.4522 15.9498 15.7185 15.4827H13.5C13.0226 15.4827 12.5648 15.2908 12.2272 14.9492C11.8896 14.6076 11.7 14.1443 11.7 13.6612V10.0182C11.7 9.53512 11.8896 9.07182 12.2272 8.73022C12.5648 8.38863 13.0226 8.19672 13.5 8.19672H16.1442C15.9246 6.43615 15.0776 4.81719 13.7623 3.6436C12.4469 2.47002 10.7536 1.82247 9 1.82247C7.2464 1.82247 5.55306 2.47002 4.23772 3.6436C2.92237 4.81719 2.07543 6.43615 1.8558 8.19672H4.5C4.97739 8.19672 5.43523 8.38863 5.77279 8.73022C6.11036 9.07182 6.3 9.53512 6.3 10.0182V13.6612C6.3 14.1443 6.11036 14.6076 5.77279 14.9492C5.43523 15.2908 4.97739 15.4827 4.5 15.4827H1.8C1.32261 15.4827 0.864773 15.2908 0.527208 14.9492C0.189642 14.6076 0 14.1443 0 13.6612V9.10747C0 4.07741 4.0293 0 9 0C13.9707 0 18 4.07741 18 9.10747V13.663Z" fill="black"/>
</svg>
