<svg width="22" height="20" viewBox="0 0 22 20" fill="none" xmlns="http://www.w3.org/2000/svg">
<path d="M17 16C18.6569 16 20 14.6569 20 13C20 11.3431 18.6569 10 17 10C15.3431 10 14 11.3431 14 13C14 14.6569 15.3431 16 17 16Z" stroke="black" stroke-width="2" stroke-linecap="round" stroke-linejoin="round"/>
<path d="M8 9C10.2091 9 12 7.20914 12 5C12 2.79086 10.2091 1 8 1C5.79086 1 4 2.79086 4 5C4 7.20914 5.79086 9 8 9Z" stroke="black" stroke-width="2" stroke-linecap="round" stroke-linejoin="round"/>
<path d="M9 12.9998H5C3.93913 12.9998 2.92172 13.4212 2.17157 14.1714C1.42143 14.9215 1 15.9389 1 16.9998V18.9998M20.7 14.3998L19.8 14.0998M14.2 11.8998L13.3 11.5998M15.6 16.6998L15.9 15.7998M18.1 10.1998L18.4 9.2998M18.6 16.6998L18.2 15.6998M15.8 10.2998L15.4 9.2998M13.3 14.5998L14.3 14.1998M19.7 11.7998L20.7 11.3998" stroke="black" stroke-width="2" stroke-linecap="round" stroke-linejoin="round"/>
</svg>
