<svg width="24" height="17" viewBox="0 0 24 17" fill="none" xmlns="http://www.w3.org/2000/svg">
<path d="M6.6963 0.915655C7.28141 0.328516 8.06628 -6.85649e-05 8.88347 1.07317e-08H20.6133C21.2945 1.07317e-08 22.0874 0.194621 22.7355 0.608483C23.3951 1.02821 24 1.75041 24 2.78448V14.2155C24 15.2496 23.3951 15.9706 22.7355 16.3915C22.0942 16.787 21.361 16.9973 20.6133 17H8.88347C8.06628 17.0001 7.28141 16.6715 6.6963 16.0843L0.601841 9.96904C0.411358 9.77789 0.259974 9.54944 0.156612 9.29714C0.05325 9.04484 0 8.77381 0 8.5C0 8.22619 0.05325 7.95516 0.156612 7.70286C0.259974 7.45056 0.411358 7.22211 0.601841 7.03097L6.6963 0.915655ZM14.2739 5.53379C14.1957 5.4474 14.1014 5.37811 13.9966 5.33005C13.8918 5.28199 13.7787 5.25615 13.6639 5.25406C13.5492 5.25198 13.4353 5.2737 13.3289 5.31793C13.2225 5.36215 13.1259 5.42798 13.0447 5.51147C12.9636 5.59497 12.8997 5.69443 12.8567 5.80392C12.8137 5.91341 12.7926 6.03068 12.7946 6.14875C12.7967 6.26682 12.8218 6.38325 12.8685 6.49111C12.9152 6.59898 12.9825 6.69605 13.0664 6.77655L14.741 8.5L13.0664 10.2234C12.9825 10.3039 12.9152 10.401 12.8685 10.5089C12.8218 10.6167 12.7967 10.7332 12.7946 10.8513C12.7926 10.9693 12.8137 11.0866 12.8567 11.1961C12.8997 11.3056 12.9636 11.405 13.0447 11.4885C13.1259 11.572 13.2225 11.6379 13.3289 11.6821C13.4353 11.7263 13.5492 11.748 13.6639 11.7459C13.7787 11.7439 13.8918 11.718 13.9966 11.67C14.1014 11.6219 14.1957 11.5526 14.2739 11.4662L15.9485 9.74276L17.623 11.4662C17.7012 11.5526 17.7956 11.6219 17.9004 11.67C18.0052 11.718 18.1183 11.7439 18.233 11.7459C18.3477 11.748 18.4617 11.7263 18.5681 11.6821C18.6745 11.6379 18.7711 11.572 18.8522 11.4885C18.9333 11.405 18.9973 11.3056 19.0403 11.1961C19.0832 11.0866 19.1043 10.9693 19.1023 10.8513C19.1003 10.7332 19.0752 10.6167 19.0285 10.5089C18.9818 10.401 18.9145 10.3039 18.8305 10.2234L17.156 8.5L18.8305 6.77655C18.9145 6.69605 18.9818 6.59898 19.0285 6.49111C19.0752 6.38325 19.1003 6.26682 19.1023 6.14875C19.1043 6.03068 19.0832 5.91341 19.0403 5.80392C18.9973 5.69443 18.9333 5.59497 18.8522 5.51147C18.7711 5.42798 18.6745 5.36215 18.5681 5.31793C18.4617 5.2737 18.3477 5.25198 18.233 5.25406C18.1183 5.25615 18.0052 5.28199 17.9004 5.33005C17.7956 5.37811 17.7012 5.4474 17.623 5.53379L15.9485 7.25724L14.2739 5.53379Z" fill="#FF0000"/>
</svg>
