<svg width="27" height="27" viewBox="0 0 27 27" fill="none" xmlns="http://www.w3.org/2000/svg">
<path d="M15.9587 1.95944C15.8241 1.37835 15.4885 0.863493 15.0112 0.505731C14.5339 0.147969 13.9456 -0.0297053 13.35 0.00406018C12.7545 0.0378256 12.19 0.280861 11.7562 0.690279C11.3224 1.0997 11.0472 1.64918 10.9791 2.24177C10.9109 2.83437 11.0543 3.43197 11.3839 3.92914C11.7135 4.42631 12.2081 4.79108 12.7805 4.95909C13.3528 5.12711 13.9661 5.08756 14.5121 4.84742C15.0581 4.60729 15.5018 4.18201 15.7648 3.64663C17.3658 4.01121 18.8542 4.75978 20.1014 5.82779C21.3486 6.89579 22.3174 8.25117 22.924 9.77702L24.4677 9.16998C23.7531 7.36017 22.6025 5.75494 21.118 4.497C19.6335 3.23906 17.8613 2.36738 15.9587 1.95944ZM13.5045 3.38398C13.3915 3.38761 13.2789 3.36849 13.1734 3.32775C13.068 3.28701 12.9718 3.22549 12.8905 3.14683C12.8093 3.06818 12.7447 2.974 12.7006 2.8699C12.6565 2.76579 12.6338 2.65389 12.6338 2.54082C12.6338 2.42776 12.6565 2.31585 12.7006 2.21175C12.7447 2.10764 12.8093 2.01347 12.8905 1.93481C12.9718 1.85616 13.068 1.79464 13.1734 1.7539C13.2789 1.71316 13.3915 1.69404 13.5045 1.69767C13.7282 1.69767 13.9428 1.78654 14.101 1.94475C14.2592 2.10295 14.3481 2.31752 14.3481 2.54126C14.3481 2.76499 14.2592 2.97956 14.101 3.13777C13.9428 3.29597 13.7282 3.38398 13.5045 3.38398ZM9.79355 4.08495L9.16998 2.54213C7.36017 3.25671 5.75494 4.40737 4.497 5.89184C3.23906 7.3763 2.36738 9.14857 1.95944 11.0511C1.37835 11.1858 0.863493 11.5214 0.505731 11.9987C0.147969 12.4759 -0.0297053 13.0643 0.00406018 13.6598C0.0378256 14.2553 0.280861 14.8198 0.690279 15.2536C1.0997 15.6874 1.64918 15.9627 2.24177 16.0308C2.83437 16.0989 3.43197 15.9555 3.92914 15.6259C4.42631 15.2963 4.79108 14.8017 4.95909 14.2294C5.12711 13.657 5.08756 13.0437 4.84742 12.4977C4.60729 11.9517 4.18201 11.508 3.64663 11.245C4.01271 9.64211 4.76372 8.15247 5.83473 6.90493C6.90574 5.65738 8.26451 4.68949 9.79355 4.08495ZM2.54039 14.3489C2.42961 14.3489 2.31991 14.3271 2.21756 14.2847C2.11521 14.2423 2.02221 14.1802 1.94388 14.1019C1.86554 14.0235 1.8034 13.9305 1.76101 13.8282C1.71862 13.7258 1.6968 13.6161 1.6968 13.5054C1.6968 13.3946 1.71862 13.2849 1.76101 13.1825C1.8034 13.0802 1.86554 12.9872 1.94388 12.9088C2.02221 12.8305 2.11521 12.7684 2.21756 12.726C2.31991 12.6836 2.42961 12.6618 2.54039 12.6618C2.76412 12.6618 2.97869 12.7506 3.1369 12.9088C3.2951 13.067 3.38398 13.2816 3.38398 13.5054C3.38398 13.7291 3.2951 13.9437 3.1369 14.1019C2.97869 14.2601 2.76412 14.3489 2.54039 14.3489ZM13.5045 21.9387C13.034 21.9402 12.5733 22.0728 12.174 22.3217C11.7747 22.5706 11.4527 22.9258 11.2442 23.3476C9.64289 22.983 8.15433 22.2344 6.90692 21.1662C5.6595 20.098 4.6907 18.7424 4.08408 17.2163L2.54126 17.8399C3.25816 19.6527 4.41268 21.2599 5.90181 22.5181C7.39093 23.7763 9.16834 24.6462 11.0755 25.0504C11.185 25.5147 11.4236 25.9386 11.7636 26.2732C12.1036 26.6077 12.5313 26.8394 12.9973 26.9414C13.4633 27.0435 13.9487 27.0117 14.3974 26.8498C14.8462 26.6879 15.24 26.4025 15.5335 26.0265C15.8271 25.6504 16.0084 25.1991 16.0565 24.7245C16.1046 24.2499 16.0176 23.7713 15.8055 23.344C15.5934 22.9167 15.2648 22.5581 14.8577 22.3094C14.4506 22.0608 13.9815 21.9322 13.5045 21.9387ZM13.5045 25.3122C13.2808 25.3122 13.0662 25.2233 12.908 25.0651C12.7498 24.9069 12.6609 24.6923 12.6609 24.4686C12.6609 24.2448 12.7498 24.0303 12.908 23.8721C13.0662 23.7139 13.2808 23.625 13.5045 23.625C13.7282 23.625 13.9428 23.7139 14.101 23.8721C14.2592 24.0303 14.3481 24.2448 14.3481 24.4686C14.3481 24.6923 14.2592 24.9069 14.101 25.0651C13.9428 25.2233 13.7282 25.3122 13.5045 25.3122ZM26.9976 13.5045C26.9992 13.0529 26.8799 12.6092 26.6521 12.2193C26.4243 11.8294 26.0964 11.5075 25.7023 11.2871C25.3082 11.0667 24.8623 10.9557 24.4109 10.9657C23.9594 10.9757 23.5189 11.1063 23.1349 11.3439C22.751 11.5816 22.4376 11.9176 22.2273 12.3172C22.017 12.7168 21.9174 13.1654 21.939 13.6164C21.9605 14.0675 22.1023 14.5046 22.3497 14.8823C22.597 15.2601 22.941 15.5648 23.3458 15.7648C22.9812 17.3659 22.2324 18.8543 21.1643 20.1016C20.0961 21.3488 18.7406 22.3175 17.2146 22.924L17.839 24.4677C19.6519 23.7508 21.2591 22.5963 22.5172 21.1072C23.7754 19.618 24.6454 17.8406 25.0495 15.9335C25.5985 15.8037 26.0884 15.4941 26.4413 15.054C26.7943 14.614 26.9901 14.0686 26.9976 13.5045ZM24.4668 14.3481C24.2431 14.3481 24.0285 14.2592 23.8703 14.101C23.7121 13.9428 23.6233 13.7282 23.6233 13.5045C23.6233 13.2808 23.7121 13.0662 23.8703 12.908C24.0285 12.7498 24.2431 12.6609 24.4668 12.6609C24.6906 12.6609 24.9051 12.7498 25.0634 12.908C25.2216 13.0662 25.3104 13.2808 25.3104 13.5045C25.3104 13.7282 25.2216 13.9428 25.0634 14.101C24.9051 14.2592 24.6906 14.3481 24.4668 14.3481Z" fill="black"/>
<path d="M15.8567 13.3868C16.3365 12.9183 16.6658 12.3173 16.8025 11.6608C16.9392 11.0042 16.8771 10.3218 16.6242 9.70071C16.3713 9.07961 15.9389 8.54799 15.3824 8.17374C14.8259 7.79949 14.1705 7.59961 13.4999 7.59961C12.8292 7.59961 12.1738 7.79949 11.6173 8.17374C11.0608 8.54799 10.6285 9.07961 10.3755 9.70071C10.1226 10.3218 10.0605 11.0042 10.1972 11.6608C10.3339 12.3173 10.6632 12.9183 11.143 13.3868C10.572 13.7727 10.1043 14.2928 9.78072 14.9013C9.45719 15.5099 9.2877 16.1885 9.28711 16.8777V18.564H17.7204V16.8768C17.719 16.1869 17.5483 15.5079 17.2234 14.8992C16.8984 14.2906 16.4292 13.7719 15.8567 13.3868ZM11.817 10.9734C11.817 10.7518 11.8607 10.5325 11.9454 10.3278C12.0302 10.1231 12.1545 9.93706 12.3112 9.78039C12.4679 9.62372 12.6538 9.49944 12.8585 9.41465C13.0632 9.32987 13.2826 9.28623 13.5042 9.28623C13.7258 9.28623 13.9452 9.32987 14.1499 9.41465C14.3546 9.49944 14.5406 9.62372 14.6972 9.78039C14.8539 9.93706 14.9782 10.1231 15.063 10.3278C15.1477 10.5325 15.1914 10.7518 15.1914 10.9734C15.1914 11.4209 15.0136 11.85 14.6972 12.1664C14.3808 12.4828 13.9517 12.6606 13.5042 12.6606C13.0567 12.6606 12.6276 12.4828 12.3112 12.1664C11.9948 11.85 11.817 11.4209 11.817 10.9734ZM10.9734 16.8768C10.9672 16.5406 11.028 16.2065 11.1524 15.894C11.2768 15.5816 11.4621 15.297 11.6977 15.057C11.9333 14.8171 12.2144 14.6264 12.5245 14.4963C12.8346 14.3662 13.1675 14.2991 13.5038 14.2991C13.8401 14.2991 14.173 14.3662 14.4831 14.4963C14.7932 14.6264 15.0742 14.8171 15.3098 15.057C15.5454 15.297 15.7308 15.5816 15.8551 15.894C15.9795 16.2065 16.0403 16.5406 16.0341 16.8768H10.9734Z" fill="black"/>
</svg>
