<svg width="24" height="21" viewBox="0 0 24 21" fill="none" xmlns="http://www.w3.org/2000/svg">
<path d="M15.7778 19.9998V17.8887C15.7778 16.7689 15.3329 15.695 14.5411 14.9032C13.7493 14.1113 12.6754 13.6665 11.5556 13.6665H5.22222C4.10242 13.6665 3.02848 14.1113 2.23666 14.9032C1.44484 15.695 1 16.7689 1 17.8887V19.9998" stroke="#2E3748" stroke-width="2" stroke-linecap="round" stroke-linejoin="round"/>
<path d="M8.38897 9.44444C10.7208 9.44444 12.6112 7.55409 12.6112 5.22222C12.6112 2.89035 10.7208 1 8.38897 1C6.0571 1 4.16675 2.89035 4.16675 5.22222C4.16675 7.55409 6.0571 9.44444 8.38897 9.44444Z" stroke="#2E3748" stroke-width="2" stroke-linecap="round" stroke-linejoin="round"/>
<path d="M22.1112 20V17.8889C22.1105 16.9534 21.7991 16.0446 21.2259 15.3052C20.6528 14.5658 19.8503 14.0377 18.9445 13.8039M15.7778 1.13721C16.686 1.36975 17.491 1.89795 18.0659 2.63853C18.6408 3.37912 18.9528 4.28997 18.9528 5.22748C18.9528 6.165 18.6408 7.07585 18.0659 7.81643C17.491 8.55702 16.686 9.08522 15.7778 9.31776" stroke="#2E3748" stroke-width="2" stroke-linecap="round" stroke-linejoin="round"/>
</svg>
