<svg width="20" height="18" viewBox="0 0 20 18" fill="none" xmlns="http://www.w3.org/2000/svg">
<path d="M13.4446 16.9994V15.2216C13.4446 14.2786 13.07 13.3742 12.4032 12.7074C11.7364 12.0406 10.832 11.666 9.889 11.666H4.5556C3.6126 11.666 2.70822 12.0406 2.04141 12.7074C1.37461 13.3742 1 14.2786 1 15.2216V16.9994" stroke="black" stroke-width="2" stroke-linecap="round" stroke-linejoin="round"/>
<path d="M7.22211 8.1112C9.18581 8.1112 10.7777 6.51931 10.7777 4.5556C10.7777 2.5919 9.18581 1 7.22211 1C5.2584 1 3.6665 2.5919 3.6665 4.5556C3.6665 6.51931 5.2584 8.1112 7.22211 8.1112Z" stroke="black" stroke-width="2" stroke-linecap="round" stroke-linejoin="round"/>
<path d="M18.7782 16.9999V15.2221C18.7776 14.4343 18.5154 13.669 18.0328 13.0463C17.5501 12.4237 16.8743 11.979 16.1115 11.782M13.4448 1.11523C14.2096 1.31106 14.8875 1.75587 15.3716 2.37953C15.8557 3.00319 16.1185 3.77023 16.1185 4.55972C16.1185 5.34922 15.8557 6.11626 15.3716 6.73992C14.8875 7.36358 14.2096 7.80839 13.4448 8.00421" stroke="black" stroke-width="2" stroke-linecap="round" stroke-linejoin="round"/>
</svg>
