<svg width="24" height="22" viewBox="0 0 24 22" fill="none" xmlns="http://www.w3.org/2000/svg">
<path d="M15.3048 8.55556C16.464 8.55556 17.4048 9.51378 17.4048 10.6944V16.4988C17.4048 17.9578 16.8357 19.357 15.8228 20.3887C14.8099 21.4204 13.4361 22 12.0036 22C10.5711 22 9.1973 21.4204 8.18438 20.3887C7.17145 19.357 6.6024 17.9578 6.6024 16.4988V10.6944C6.6024 9.51378 7.542 8.55556 8.7024 8.55556H15.3048ZM15.3048 10.3889H8.7024C8.62283 10.3889 8.54653 10.4211 8.49027 10.4784C8.43401 10.5357 8.4024 10.6134 8.4024 10.6944V16.4988C8.4024 17.4716 8.78181 18.4045 9.45717 19.0924C10.1325 19.7802 11.0485 20.1667 12.0036 20.1667C12.9587 20.1667 13.8747 19.7802 14.55 19.0924C15.2254 18.4045 15.6048 17.4716 15.6048 16.4988V10.6944C15.6048 10.6134 15.5732 10.5357 15.5169 10.4784C15.4607 10.4211 15.3844 10.3889 15.3048 10.3889ZM2.1 8.55556H6.1572C5.73397 9.07641 5.47543 9.71554 5.4156 10.3889H2.1C2.02044 10.3889 1.94413 10.4211 1.88787 10.4784C1.83161 10.5357 1.8 10.6134 1.8 10.6944V14.6654C1.79969 15.1274 1.90222 15.5834 2.09987 15.9991C2.29753 16.4149 2.58516 16.7796 2.94114 17.0658C3.29712 17.352 3.71219 17.5523 4.15512 17.6516C4.59805 17.7509 5.05732 17.7466 5.4984 17.6391C5.6004 18.2551 5.7864 18.843 6.042 19.3893C5.6452 19.4993 5.2312 19.5547 4.8 19.5556C4.16955 19.5556 3.54528 19.4291 2.96284 19.1833C2.3804 18.9375 1.8512 18.5773 1.40546 18.1232C0.959726 17.6691 0.606186 17.13 0.365034 16.5367C0.123882 15.9434 -0.000157461 15.3076 1.50014e-07 14.6654V10.6944C1.50014e-07 9.51378 0.9408 8.55556 2.1 8.55556ZM17.85 8.55556H21.9C23.0592 8.55556 24 9.51378 24 10.6944V14.6667C24.0002 15.4161 23.8312 16.1555 23.5061 16.8278C23.181 17.5001 22.7085 18.0873 22.1251 18.544C21.5417 19.0007 20.863 19.3147 20.1415 19.4617C19.42 19.6087 18.675 19.5848 17.964 19.3918C18.2208 18.8442 18.4068 18.2563 18.51 17.6403C18.7316 17.6941 18.9616 17.7214 19.2 17.7222C19.9956 17.7222 20.7587 17.4003 21.3213 16.8273C21.8839 16.2542 22.2 15.477 22.2 14.6667V10.6944C22.2 10.6134 22.1684 10.5357 22.1121 10.4784C22.0559 10.4211 21.9796 10.3889 21.9 10.3889H18.5916C18.5318 9.71554 18.2732 9.07641 17.85 8.55556ZM12 0C12.9548 0 13.8705 0.386309 14.5456 1.07394C15.2207 1.76158 15.6 2.69421 15.6 3.66667C15.6 4.63913 15.2207 5.57176 14.5456 6.25939C13.8705 6.94703 12.9548 7.33333 12 7.33333C11.0452 7.33333 10.1295 6.94703 9.45441 6.25939C8.77928 5.57176 8.4 4.63913 8.4 3.66667C8.4 2.69421 8.77928 1.76158 9.45441 1.07394C10.1295 0.386309 11.0452 0 12 0ZM19.8 1.22222C20.5956 1.22222 21.3587 1.54415 21.9213 2.11717C22.4839 2.6902 22.8 3.46739 22.8 4.27778C22.8 5.08816 22.4839 5.86535 21.9213 6.43838C21.3587 7.01141 20.5956 7.33333 19.8 7.33333C19.0044 7.33333 18.2413 7.01141 17.6787 6.43838C17.1161 5.86535 16.8 5.08816 16.8 4.27778C16.8 3.46739 17.1161 2.6902 17.6787 2.11717C18.2413 1.54415 19.0044 1.22222 19.8 1.22222ZM4.2 1.22222C4.99565 1.22222 5.75871 1.54415 6.32132 2.11717C6.88393 2.6902 7.2 3.46739 7.2 4.27778C7.2 5.08816 6.88393 5.86535 6.32132 6.43838C5.75871 7.01141 4.99565 7.33333 4.2 7.33333C3.40435 7.33333 2.64129 7.01141 2.07868 6.43838C1.51607 5.86535 1.2 5.08816 1.2 4.27778C1.2 3.46739 1.51607 2.6902 2.07868 2.11717C2.64129 1.54415 3.40435 1.22222 4.2 1.22222ZM12 1.83333C11.5226 1.83333 11.0648 2.02649 10.7272 2.3703C10.3896 2.71412 10.2 3.18044 10.2 3.66667C10.2 4.1529 10.3896 4.61921 10.7272 4.96303C11.0648 5.30685 11.5226 5.5 12 5.5C12.4774 5.5 12.9352 5.30685 13.2728 4.96303C13.6104 4.61921 13.8 4.1529 13.8 3.66667C13.8 3.18044 13.6104 2.71412 13.2728 2.3703C12.9352 2.02649 12.4774 1.83333 12 1.83333ZM19.8 3.05556C19.4817 3.05556 19.1765 3.18433 18.9515 3.41354C18.7264 3.64275 18.6 3.95362 18.6 4.27778C18.6 4.60193 18.7264 4.91281 18.9515 5.14202C19.1765 5.37123 19.4817 5.5 19.8 5.5C20.1183 5.5 20.4235 5.37123 20.6485 5.14202C20.8736 4.91281 21 4.60193 21 4.27778C21 3.95362 20.8736 3.64275 20.6485 3.41354C20.4235 3.18433 20.1183 3.05556 19.8 3.05556ZM4.2 3.05556C3.88174 3.05556 3.57652 3.18433 3.35147 3.41354C3.12643 3.64275 3 3.95362 3 4.27778C3 4.60193 3.12643 4.91281 3.35147 5.14202C3.57652 5.37123 3.88174 5.5 4.2 5.5C4.51826 5.5 4.82348 5.37123 5.04853 5.14202C5.27357 4.91281 5.4 4.60193 5.4 4.27778C5.4 3.95362 5.27357 3.64275 5.04853 3.41354C4.82348 3.18433 4.51826 3.05556 4.2 3.05556Z" fill="#2E3748"/>
</svg>
